<?xml version="1.0" encoding="UTF-8"?>
<svg width="35px" height="35px" viewBox="0 0 35 35" version="1.1" xmlns="http://www.w3.org/2000/svg" xmlns:xlink="http://www.w3.org/1999/xlink">
    <!-- Generator: Sketch 54.1 (76490) - https://sketchapp.com -->
    <title>dislike-veryTrue</title>
    <desc>Created with Sketch.</desc>
    <g id="Version-2" stroke="none" stroke-width="1" fill="none" fill-rule="evenodd">
        <g id="Item" transform="translate(-320.000000, -442.000000)" fill="#6E6E6E" fill-rule="nonzero">
            <g id="Group-9" transform="translate(6.000000, 275.000000)">
                <g id="dislike-veryTrue" transform="translate(314.000000, 167.000000)">
                    <g id="noun_Sad_122440-Copy-2">
                        <path d="M17.3764008,0.6542154 C8.0904636,0.6542154 0.5628258,8.1822258 0.5628258,17.468163 C0.5628258,26.7541002 8.0904636,34.2783846 17.3764008,34.2783846 C26.6608476,34.2783846 34.1884854,26.7541002 34.1884854,17.468163 C34.1884854,8.1822258 26.6608476,0.6542154 17.3764008,0.6542154 Z M17.3764008,31.649319 C9.5570172,31.649319 3.1930092,25.2856836 3.1930092,17.4677904 C3.1930092,9.6461712 9.5570172,3.2858892 17.3764008,3.2858892 C25.1931762,3.2858892 31.556439,9.6457986 31.556439,17.4677904 C31.556439,25.2856836 25.1931762,31.649319 17.3764008,31.649319 Z" id="Shape"></path>
                        <path d="M9.82827,23.155902 C9.3144546,23.6678544 9.3144546,24.5006154 9.82827,25.0129404 C10.3420854,25.5286188 11.1748464,25.5286188 11.6886618,25.0129404 C14.8226004,21.8790018 19.9246122,21.8790018 23.0619042,25.0129404 C23.314527,25.27227 23.6528478,25.3985814 23.9904234,25.3985814 C24.3250182,25.3985814 24.6629664,25.27227 24.9189426,25.0129404 C25.4312676,24.5006154 25.4312676,23.6678544 24.9189426,23.155902 C20.7596088,18.9906066 13.9879764,18.9906066 9.82827,23.155902 Z" id="Path"></path>
                    </g>
                    <path d="M15.3220242,11.0899106 L9.48748034,11.0899106 C9.16524659,11.0899106 8.90425706,11.6767556 8.90425706,12.4007174 C8.90425706,13.131386 9.16524659,13.7186036 9.48748034,13.7186036 L15.3220242,13.7186036 C15.6440929,13.7186036 15.9042571,13.131386 15.9042571,12.4007174 C15.9042571,11.6767556 15.6440929,11.0899106 15.3220242,11.0899106 Z" id="Path-Copy" transform="translate(12.404257, 12.404257) rotate(45.000000) translate(-12.404257, -12.404257) "></path>
                    <path d="M25.3220242,11.0899106 L19.4874803,11.0899106 C19.1652466,11.0899106 18.9042571,11.6767556 18.9042571,12.4007174 C18.9042571,13.131386 19.1652466,13.7186036 19.4874803,13.7186036 L25.3220242,13.7186036 C25.6440929,13.7186036 25.9042571,13.131386 25.9042571,12.4007174 C25.9042571,11.6767556 25.6440929,11.0899106 25.3220242,11.0899106 Z" id="Path-Copy-2" transform="translate(22.404257, 12.404257) rotate(-45.000000) translate(-22.404257, -12.404257) "></path>
                </g>
            </g>
        </g>
    </g>
</svg>