<?xml version="1.0" encoding="UTF-8"?>
<svg width="35px" height="34px" viewBox="0 0 35 34" version="1.1" xmlns="http://www.w3.org/2000/svg" xmlns:xlink="http://www.w3.org/1999/xlink">
    <!-- Generator: Sketch 54.1 (76490) - https://sketchapp.com -->
    <title>dislike-notTrue</title>
    <desc>Created with Sketch.</desc>
    <g id="Version-2" stroke="none" stroke-width="1" fill="none" fill-rule="evenodd">
        <g id="Item" transform="translate(-36.000000, -443.000000)" fill="#6E6E6E" fill-rule="nonzero">
            <g id="Group-9" transform="translate(6.000000, 275.000000)">
                <g id="dislike-notTrue" transform="translate(30.160000, 167.360000)">
                    <path d="M17.3764008,0.6542154 C8.0904636,0.6542154 0.5628258,8.1822258 0.5628258,17.468163 C0.5628258,26.7541002 8.0904636,34.2783846 17.3764008,34.2783846 C26.6608476,34.2783846 34.1884854,26.7541002 34.1884854,17.468163 C34.1884854,8.1822258 26.6608476,0.6542154 17.3764008,0.6542154 Z M17.3764008,31.649319 C9.5570172,31.649319 3.1933818,25.2856836 3.1933818,17.4677904 C3.1933818,9.6498972 9.5570172,3.2858892 17.3764008,3.2858892 C25.1931762,3.2858892 31.5568116,9.6495246 31.5568116,17.4677904 C31.5568116,25.2856836 25.1931762,31.649319 17.3764008,31.649319 Z" id="Shape"></path>
                    <path d="M12.6548136,15.7340826 C13.68468,15.7340826 14.5207944,14.900949 14.5207944,13.8695922 C14.5207944,12.838608 13.68468,12.005847 12.6548136,12.005847 C11.6238294,12.005847 10.7910684,12.838608 10.7910684,13.8695922 C10.7910684,14.9005764 11.624202,15.7340826 12.6548136,15.7340826 Z" id="Path"></path>
                    <path d="M22.0964976,15.7340826 C23.1274818,15.7340826 23.9606154,14.900949 23.9606154,13.8695922 C23.9606154,12.838608 23.1274818,12.005847 22.0964976,12.005847 C21.0688668,12.005847 20.2305168,12.838608 20.2305168,13.8695922 C20.2305168,14.9005764 21.0688668,15.7340826 22.0964976,15.7340826 Z" id="Path"></path>
                </g>
            </g>
        </g>
    </g>
</svg>