<?xml version="1.0" encoding="UTF-8"?>
<svg width="35px" height="35px" viewBox="0 0 35 35" version="1.1" xmlns="http://www.w3.org/2000/svg" xmlns:xlink="http://www.w3.org/1999/xlink">
    <!-- Generator: Sketch 54.1 (76490) - https://sketchapp.com -->
    <title>dislike-mostlyTrue</title>
    <desc>Created with Sketch.</desc>
    <g id="Version-2" stroke="none" stroke-width="1" fill="none" fill-rule="evenodd">
        <g id="Item" transform="translate(-249.000000, -442.000000)" fill="#6E6E6E" fill-rule="nonzero">
            <g id="Group-9" transform="translate(6.000000, 275.000000)">
                <g id="dislike-mostlyTrue" transform="translate(243.000000, 167.000000)">
                    <g id="noun_Neutral_122432-Copy">
                        <path d="M17.3764008,0.6542154 C8.0904636,0.6542154 0.5628258,8.1822258 0.5628258,17.468163 C0.5628258,26.7541002 8.0904636,34.2783846 17.3764008,34.2783846 C26.6608476,34.2783846 34.1884854,26.7541002 34.1884854,17.468163 C34.1884854,8.1822258 26.6608476,0.6542154 17.3764008,0.6542154 Z M17.3764008,31.649319 C9.5570172,31.649319 3.1930092,25.2856836 3.1930092,17.4677904 C3.1930092,9.6498972 9.5570172,3.2858892 17.3764008,3.2858892 C25.1931762,3.2858892 31.556439,9.6495246 31.556439,17.4677904 C31.556439,25.2856836 25.1931762,31.649319 17.3764008,31.649319 Z" id="Shape"></path>
                        <path d="M23.9602428,22.0291596 L10.7910684,22.0291596 C10.0637532,22.0291596 9.4746726,22.6160046 9.4746726,23.3399664 C9.4746726,24.070635 10.0637532,24.6578526 10.7910684,24.6578526 L23.9602428,24.6578526 C24.6871854,24.6578526 25.274403,24.070635 25.274403,23.3399664 C25.274403,22.6160046 24.6871854,22.0291596 23.9602428,22.0291596 Z" id="Path"></path>
                    </g>
                    <path d="M15.3220242,12.0899106 L9.48748034,12.0899106 C9.16524659,12.0899106 8.90425706,12.6767556 8.90425706,13.4007174 C8.90425706,14.131386 9.16524659,14.7186036 9.48748034,14.7186036 L15.3220242,14.7186036 C15.6440929,14.7186036 15.9042571,14.131386 15.9042571,13.4007174 C15.9042571,12.6767556 15.6440929,12.0899106 15.3220242,12.0899106 Z" id="Path" transform="translate(12.404257, 13.404257) rotate(45.000000) translate(-12.404257, -13.404257) "></path>
                    <path d="M25.3220242,12.0899106 L19.4874803,12.0899106 C19.1652466,12.0899106 18.9042571,12.6767556 18.9042571,13.4007174 C18.9042571,14.131386 19.1652466,14.7186036 19.4874803,14.7186036 L25.3220242,14.7186036 C25.6440929,14.7186036 25.9042571,14.131386 25.9042571,13.4007174 C25.9042571,12.6767556 25.6440929,12.0899106 25.3220242,12.0899106 Z" id="Path" transform="translate(22.404257, 13.404257) rotate(-45.000000) translate(-22.404257, -13.404257) "></path>
                </g>
            </g>
        </g>
    </g>
</svg>