<?xml version="1.0" encoding="UTF-8"?>
<svg width="35px" height="34px" viewBox="0 0 35 34" version="1.1" xmlns="http://www.w3.org/2000/svg" xmlns:xlink="http://www.w3.org/1999/xlink">
    <!-- Generator: Sketch 54.1 (76490) - https://sketchapp.com -->
    <title>dislike-neutral</title>
    <desc>Created with Sketch.</desc>
    <g id="Version-2" stroke="none" stroke-width="1" fill="none" fill-rule="evenodd">
        <g id="Item" transform="translate(-177.000000, -443.000000)" fill="#6E6E6E" fill-rule="nonzero">
            <g id="Group-9" transform="translate(6.000000, 275.000000)">
                <g id="dislike-neutral" transform="translate(171.400000, 167.360000)">
                    <path d="M17.3764008,0.6542154 C8.0904636,0.6542154 0.5628258,8.1822258 0.5628258,17.468163 C0.5628258,26.7541002 8.0904636,34.2783846 17.3764008,34.2783846 C26.6608476,34.2783846 34.1884854,26.7541002 34.1884854,17.468163 C34.1884854,8.1822258 26.6608476,0.6542154 17.3764008,0.6542154 Z M17.3764008,31.649319 C9.5570172,31.649319 3.1930092,25.2856836 3.1930092,17.4677904 C3.1930092,9.6498972 9.5570172,3.2858892 17.3764008,3.2858892 C25.1931762,3.2858892 31.556439,9.6495246 31.556439,17.4677904 C31.556439,25.2856836 25.1931762,31.649319 17.3764008,31.649319 Z" id="Shape"></path>
                    <path d="M12.6548136,15.7340826 C13.6843074,15.7340826 14.5207944,14.900949 14.5207944,13.8695922 C14.5207944,12.838608 13.6843074,12.005847 12.6548136,12.005847 C11.6234568,12.005847 10.7910684,12.838608 10.7910684,13.8695922 C10.7910684,14.9005764 11.6238294,15.7340826 12.6548136,15.7340826 Z" id="Path"></path>
                    <path d="M22.0964976,15.7340826 C23.1271092,15.7340826 23.9602428,14.900949 23.9602428,13.8695922 C23.9602428,12.838608 23.1271092,12.005847 22.0964976,12.005847 C21.0688668,12.005847 20.2305168,12.838608 20.2305168,13.8695922 C20.2305168,14.9005764 21.0688668,15.7340826 22.0964976,15.7340826 Z" id="Path"></path>
                    <path d="M23.9602428,22.0291596 L10.7910684,22.0291596 C10.0637532,22.0291596 9.4746726,22.6160046 9.4746726,23.3399664 C9.4746726,24.070635 10.0637532,24.6578526 10.7910684,24.6578526 L23.9602428,24.6578526 C24.6871854,24.6578526 25.274403,24.070635 25.274403,23.3399664 C25.274403,22.6160046 24.6871854,22.0291596 23.9602428,22.0291596 Z" id="Path"></path>
                </g>
            </g>
        </g>
    </g>
</svg>