<?xml version="1.0" encoding="UTF-8"?>
<svg width="32px" height="32px" viewBox="0 0 32 32" version="1.1" xmlns="http://www.w3.org/2000/svg" xmlns:xlink="http://www.w3.org/1999/xlink">
    <!-- Generator: Sketch 54.1 (76490) - https://sketchapp.com -->
    <title>dislike-mostlyTrue</title>
    <desc>Created with Sketch.</desc>
    <g id="Page-1" stroke="none" stroke-width="1" fill="none" fill-rule="evenodd">
        <g id="Artboard" transform="translate(-476.000000, -366.000000)" fill="#474747" fill-rule="nonzero">
            <g id="dislike-mostlyTrue" transform="translate(476.000000, 366.000000)">
                <g id="noun_Very-happy_122447-Copy-2">
                    <path d="M16.08926,0.605755 C7.49117,0.605755 0.521135,7.576135 0.521135,16.174225 C0.521135,24.772315 7.49117,31.739245 16.08926,31.739245 C24.68597,31.739245 31.656005,24.772315 31.656005,16.174225 C31.656005,7.576135 24.68597,0.605755 16.08926,0.605755 Z M16.08926,29.304925 C8.84909,29.304925 2.956835,23.41267 2.956835,16.17388 C2.956835,8.93509 8.84909,3.04249 16.08926,3.04249 C23.327015,3.04249 29.21927,8.934745 29.21927,16.17388 C29.21927,23.41267 23.327015,29.304925 16.08926,29.304925 Z" id="Shape"></path>
                    <path d="M11.71742,16.45207 C12.671,16.45207 13.44518,15.68065 13.44518,14.72569 C13.44518,13.771075 12.671,13 11.71742,13 C10.762805,13 9.99173,13.771075 9.99173,14.72569 C9.99173,15.680305 10.76315,16.45207 11.71742,16.45207 Z" id="Path"></path>
                    <path d="M20.45972,16.45207 C21.414335,16.45207 22.185755,15.68065 22.185755,14.72569 C22.185755,13.771075 21.414335,13 20.45972,13 C19.50821,13 18.73196,13.771075 18.73196,14.72569 C18.73196,15.680305 19.50821,16.45207 20.45972,16.45207 Z" id="Path"></path>
                </g>
                <path d="M20.1682388,22 L11.8331761,22 C11.3728422,22 11,22.543375 11,23.21371 C11,23.890255 11.3728422,24.433975 11.8331761,24.433975 L20.1682388,24.433975 C20.6283369,24.433975 21,23.890255 21,23.21371 C21,22.543375 20.6283369,22 20.1682388,22 Z" id="Path"></path>
                <path d="M13.7431507,8.87776611 L7.64605228,8.87776611 C7.30931801,8.87776611 7.03658396,9.42114111 7.03658396,10.0914761 C7.03658396,10.7680211 7.30931801,11.3117411 7.64605228,11.3117411 L13.7431507,11.3117411 C14.0797124,11.3117411 14.351584,10.7680211 14.351584,10.0914761 C14.351584,9.42114111 14.0797124,8.87776611 13.7431507,8.87776611 Z" id="Path-Copy" transform="translate(10.694084, 10.094754) rotate(-345.000000) translate(-10.694084, -10.094754) "></path>
                <path d="M24.89692,8.87776611 L18.7998216,8.87776611 C18.4630873,8.87776611 18.1903533,9.42114111 18.1903533,10.0914761 C18.1903533,10.7680211 18.4630873,11.3117411 18.7998216,11.3117411 L24.89692,11.3117411 C25.2334817,11.3117411 25.5053533,10.7680211 25.5053533,10.0914761 C25.5053533,9.42114111 25.2334817,8.87776611 24.89692,8.87776611 Z" id="Path-Copy-3" transform="translate(21.847853, 10.094754) scale(-1, 1) rotate(-345.000000) translate(-21.847853, -10.094754) "></path>
            </g>
        </g>
    </g>
</svg>