<?xml version="1.0" encoding="UTF-8"?>
<svg width="32px" height="32px" viewBox="0 0 32 32" version="1.1" xmlns="http://www.w3.org/2000/svg" xmlns:xlink="http://www.w3.org/1999/xlink">
    <!-- Generator: Sketch 54.1 (76490) - https://sketchapp.com -->
    <title>dislike-veryTrue</title>
    <desc>Created with Sketch.</desc>
    <g id="Page-1" stroke="none" stroke-width="1" fill="none" fill-rule="evenodd">
        <g id="Artboard" transform="translate(-527.000000, -366.000000)" fill="#474747" fill-rule="nonzero">
            <g id="dislike-veryTrue" transform="translate(527.000000, 366.000000)">
                <g id="noun_Very-happy_122447-Copy-2">
                    <path d="M16.08926,0.605755 C7.49117,0.605755 0.521135,7.576135 0.521135,16.174225 C0.521135,24.772315 7.49117,31.739245 16.08926,31.739245 C24.68597,31.739245 31.656005,24.772315 31.656005,16.174225 C31.656005,7.576135 24.68597,0.605755 16.08926,0.605755 Z M16.08926,29.304925 C8.84909,29.304925 2.956835,23.41267 2.956835,16.17388 C2.956835,8.93509 8.84909,3.04249 16.08926,3.04249 C23.327015,3.04249 29.21927,8.934745 29.21927,16.17388 C29.21927,23.41267 23.327015,29.304925 16.08926,29.304925 Z" id="Shape"></path>
                    <path d="M11.71742,16.45207 C12.671,16.45207 13.44518,15.68065 13.44518,14.72569 C13.44518,13.771075 12.671,13 11.71742,13 C10.762805,13 9.99173,13.771075 9.99173,14.72569 C9.99173,15.680305 10.76315,16.45207 11.71742,16.45207 Z" id="Path"></path>
                    <path d="M20.45972,16.45207 C21.414335,16.45207 22.185755,15.68065 22.185755,14.72569 C22.185755,13.771075 21.414335,13 20.45972,13 C19.50821,13 18.73196,13.771075 18.73196,14.72569 C18.73196,15.680305 19.50821,16.45207 20.45972,16.45207 Z" id="Path"></path>
                </g>
                <path d="M19.3345911,22 L12.6665409,22 C12.2982737,22 12,22.543375 12,23.21371 C12,23.890255 12.2982737,24.433975 12.6665409,24.433975 L19.3345911,24.433975 C19.7026696,24.433975 20,23.890255 20,23.21371 C20,22.543375 19.7026696,22 19.3345911,22 Z" id="Path"></path>
                <path d="M14.7431507,8.87776611 L8.64605228,8.87776611 C8.30931801,8.87776611 8.03658396,9.42114111 8.03658396,10.0914761 C8.03658396,10.7680211 8.30931801,11.3117411 8.64605228,11.3117411 L14.7431507,11.3117411 C15.0797124,11.3117411 15.351584,10.7680211 15.351584,10.0914761 C15.351584,9.42114111 15.0797124,8.87776611 14.7431507,8.87776611 Z" id="Path-Copy" transform="translate(11.694084, 10.094754) rotate(35.000000) translate(-11.694084, -10.094754) "></path>
                <path d="M23.7431507,8.87776611 L17.6460523,8.87776611 C17.309318,8.87776611 17.036584,9.42114111 17.036584,10.0914761 C17.036584,10.7680211 17.309318,11.3117411 17.6460523,11.3117411 L23.7431507,11.3117411 C24.0797124,11.3117411 24.351584,10.7680211 24.351584,10.0914761 C24.351584,9.42114111 24.0797124,8.87776611 23.7431507,8.87776611 Z" id="Path-Copy-2" transform="translate(20.694084, 10.094754) scale(-1, 1) rotate(35.000000) translate(-20.694084, -10.094754) "></path>
            </g>
        </g>
    </g>
</svg>