<?xml version="1.0" encoding="UTF-8"?>
<svg width="32px" height="32px" viewBox="0 0 32 32" version="1.1" xmlns="http://www.w3.org/2000/svg" xmlns:xlink="http://www.w3.org/1999/xlink">
    <!-- Generator: Sketch 54.1 (76490) - https://sketchapp.com -->
    <title>noun_smiley face_122433</title>
    <desc>Created with Sketch.</desc>
    <g id="Page-1" stroke="none" stroke-width="1" fill="none" fill-rule="evenodd">
        <g id="IT4---dev" transform="translate(-255.000000, -713.000000)" fill="#474747" fill-rule="nonzero">
            <g id="noun_smiley-face_122433" transform="translate(255.000000, 713.000000)">
                <path d="M16.089605,0.605755 C7.491515,0.605755 0.521135,7.576135 0.521135,16.174225 C0.521135,24.772315 7.491515,31.739245 16.089605,31.739245 C24.68597,31.739245 31.656005,24.772315 31.656005,16.174225 C31.656005,7.576135 24.68597,0.605755 16.089605,0.605755 Z M16.089605,29.304925 C8.84909,29.304925 2.956835,23.41267 2.956835,16.17388 C2.956835,8.93164 8.84909,3.04249 16.089605,3.04249 C23.327015,3.04249 29.21927,8.931295 29.21927,16.17388 C29.21927,23.41267 23.327015,29.304925 16.089605,29.304925 Z" id="Shape"></path>
                <path d="M21.354305,21.4372 C18.450785,24.338995 13.7267,24.338995 10.82456,21.4372 C10.348805,20.960065 9.57773,20.960065 9.101975,21.4372 C8.62622,21.91468 8.62622,22.685755 9.101975,23.16013 C11.027075,25.088335 13.55903,26.04916 16.089605,26.04916 C18.618455,26.04916 21.152135,25.088335 23.073785,23.16013 C23.551265,22.685755 23.551265,21.91468 23.073785,21.4372 C22.599755,20.960065 21.828335,20.960065 21.354305,21.4372 Z" id="Path"></path>
                <path d="M11.717765,14.568595 C12.670655,14.568595 13.44518,13.797175 13.44518,12.842215 C13.44518,11.8876 12.670655,11.116525 11.717765,11.116525 C10.762805,11.116525 9.99173,11.8876 9.99173,12.842215 C9.99173,13.79683 10.76315,14.568595 11.717765,14.568595 Z" id="Path"></path>
                <path d="M20.45972,14.568595 C21.414335,14.568595 22.185755,13.797175 22.185755,12.842215 C22.185755,11.8876 21.414335,11.116525 20.45972,11.116525 C19.50821,11.116525 18.73196,11.8876 18.73196,12.842215 C18.73196,13.79683 19.50821,14.568595 20.45972,14.568595 Z" id="Path"></path>
            </g>
        </g>
    </g>
</svg>