<?xml version="1.0" encoding="UTF-8"?>
<svg width="32px" height="32px" viewBox="0 0 32 32" version="1.1" xmlns="http://www.w3.org/2000/svg" xmlns:xlink="http://www.w3.org/1999/xlink">
    <!-- Generator: Sketch 54.1 (76490) - https://sketchapp.com -->
    <title>noun_Very happy_122447 Copy</title>
    <desc>Created with Sketch.</desc>
    <g id="Page-1" stroke="none" stroke-width="1" fill="none" fill-rule="evenodd">
        <g id="IT4---dev" transform="translate(-102.000000, -713.000000)" fill="#474747" fill-rule="nonzero">
            <g id="noun_Very-happy_122447-Copy" transform="translate(102.000000, 713.000000)">
                <path d="M16.08926,0.605755 C7.49117,0.605755 0.521135,7.576135 0.521135,16.174225 C0.521135,24.772315 7.49117,31.739245 16.08926,31.739245 C24.68597,31.739245 31.656005,24.772315 31.656005,16.174225 C31.656005,7.576135 24.68597,0.605755 16.08926,0.605755 Z M16.08926,29.304925 C8.84909,29.304925 2.956835,23.41267 2.956835,16.17388 C2.956835,8.93509 8.84909,3.04249 16.08926,3.04249 C23.327015,3.04249 29.21927,8.934745 29.21927,16.17388 C29.21927,23.41267 23.327015,29.304925 16.08926,29.304925 Z" id="Shape"></path>
                <path d="M8,17 C8,21.4118314 11.5889879,25 15.9998626,25 C20.4099129,25 24,21.4115566 24,17 L8,17 Z" id="Path" transform="translate(16.000000, 21.000000) rotate(-180.000000) translate(-16.000000, -21.000000) "></path>
                <path d="M11.71742,14.568595 C12.671,14.568595 13.44518,13.797175 13.44518,12.842215 C13.44518,11.8876 12.671,11.116525 11.71742,11.116525 C10.762805,11.116525 9.99173,11.8876 9.99173,12.842215 C9.99173,13.79683 10.76315,14.568595 11.71742,14.568595 Z" id="Path"></path>
                <path d="M20.45972,14.568595 C21.414335,14.568595 22.185755,13.797175 22.185755,12.842215 C22.185755,11.8876 21.414335,11.116525 20.45972,11.116525 C19.50821,11.116525 18.73196,11.8876 18.73196,12.842215 C18.73196,13.79683 19.50821,14.568595 20.45972,14.568595 Z" id="Path"></path>
            </g>
        </g>
    </g>
</svg>